<svg width="63" height="65" xmlns="http://www.w3.org/2000/svg">
 <!-- Created with Method Draw - http://github.com/duopixel/Method-Draw/ -->
 <g>
  <title>background</title>
  <rect fill="none" id="canvas_background" height="67" width="65" y="-1" x="-1"/>
 </g>
 <g>
  <title>Layer 1</title>
  <g id="layer1">
   <g transform="matrix(0.26458333,0,0,0.26458333,35.292574,55.103922) " id="svg_60">
    <path fill="#666666" fill-rule="evenodd" stroke-width="0.623622" stroke-miterlimit="4" id="svg_1" d="m-62.833663,-128.61208c-0.70607,-0.0159 -1.56438,0.50849 -1.34952,1.30692c0.20678,0.61897 0.64491,1.21184 1.18386,1.58807c0.80494,0.47902 1.81029,-0.42736 1.49745,-1.28488c-0.0926,-0.76789 -0.36548,-1.67304 -1.33179,-1.61011z"/>
    <path fill="#666666" fill-rule="evenodd" stroke-width="0.623622" stroke-miterlimit="4" id="svg_2" d="m-103.098483,-185.73056c-7.48514,0.59858 -14.76243,3.77502 -20.51025,8.58223c-7.04138,5.71204 -9.0424,15.32315 -8.86963,23.97357c0.4542,19.2187 8.92551,36.97654 17.23468,53.90313c2.89683,5.33028 4.98862,11.29884 9.11437,15.83808c1.81055,0.86043 2.11841,-1.71915 1.96917,-2.93457c-0.0927,-12.67739 -3.7086,-25.37832 -1.00423,-37.86358c0.5398,-4.00174 1.87403,-8.02071 4.90216,-10.84334c2.86599,-2.75742 5.58667,-7.09195 10.06691,-6.69975c5.32149,-0.0821 11.083,0.57424 15.85105,3.43027c4.76995,1.99134 6.91942,6.95746 10.2985,10.47459c1.33121,1.06104 2.47053,-0.83522 1.7802,-2.01222c-2.95366,-13.02018 -4.50865,-26.97433 -12.092,-38.34004c-5.72039,-8.28161 -14.71919,-13.946 -24.21596,-16.9329c-1.4759,-0.38021 -2.99897,-0.5986 -4.52497,-0.57547z"/>
    <path fill="#666666" fill-rule="evenodd" stroke-width="0.623622" stroke-miterlimit="4" id="svg_3" d="m-105.213713,-84.28276c-0.6686,-0.004 -1.24998,0.68903 -1.02756,1.34306c0.19884,0.67115 1.04309,1.19449 1.69373,0.78981c0.81965,-0.45004 0.6292,-1.85703 -0.27389,-2.08936c-0.12787,-0.0353 -0.25961,-0.0518 -0.39228,-0.0435l0,-0.00001z"/>
    <g id="svg_7">
     <g id="svg_6">
      <path d="m-104.608673,-82.7668c-0.9,0.1 -3.1,-4 -3.6,-4.6c-1.8,-2.7 -3.2,-5.7 -4.6,-8.6c-2.9,-6 -5.9,-12 -8.6,-18.1c-6,-13.4 -11,-28 -10.2,-42.9c0.4,-7.8 2.9,-15.9 9.5,-20.6c4.7,-3.4 10.4,-5.9 16,-7.1c5.8,-1.2 11.2,1.3 16.2,4c6,3.3 11.3,7.2 15,12.9c8.8,13.5 9.5,30.6 13.7,45.8c0.3,0.9 1.7,0.5 1.4,-0.4c-4.3,-15.8 -5,-33.6 -14.7,-47.4c-3.7,-5.3 -9,-9.1 -14.7,-12.2c-4.7,-2.6 -10.1,-5.2 -15.6,-4.5c-12.1,1.7 -23.6,9 -27,21c-4.3,15.2 0.9,33 6.9,47c3.5,8.3 7.5,16.3 11.4,24.3c0.9,2 5.5,13.1 8.9,12.8c0.9,0 1,-1.5 0,-1.4z" id="svg_4"/>
      <path d="m-59.808673,-122.5668c-3.2,-4.2 -5.9,-8.9 -9.2,-12.9c-2,-2.4 -5.1,-3.7 -7.9,-5c-3.9,-1.8 -7.4,-2 -11.6,-2.3c-5.5,-0.4 -8,2.2 -11.3,6.1c-1.6,1.9 -3.5,3.4 -4.5,5.7c-1.2,2.7 -1.4,5.8 -2,8.7c-1.3,6.1 -0.8,11.9 -0.1,18.1c0.7,6 1.3,12.1 1.5,18.1c0,1 -0.3,2.6 0,3.5c0.2,0.6 0.9,0 1,0.2c-0.4,-0.9 -1.7,-0.1 -1.3,0.8c1.2,2.5 1.9,-2.4 1.9,-2.7c0.2,-11.6 -4.1,-23.9 -2,-35.4c0.6,-3.1 1,-6.7 2,-9.7c1.1,-3.1 3.9,-5.7 6.1,-8.1c3.7,-4.1 8.9,-4.2 14.1,-3.4c3.9,0.6 9.7,2.9 12.6,6c3.7,3.8 6.3,9 9.5,13.2c0.5,0.6 1.8,-0.1 1.2,-0.9z" id="svg_5"/>
     </g>
    </g>
    <g id="svg_13">
     <path fill="#666666" fill-rule="evenodd" stroke-width="0.623622" stroke-miterlimit="4" id="svg_8" d="m49.862067,-186.06621c-7.04251,0.18294 -13.16792,4.27699 -18.81507,8.07876c-6.63329,4.33746 -11.25572,11.11206 -14.15464,18.386c-3.97086,9.70629 -5.51316,20.15134 -7.73565,30.34065c-0.52086,1.01069 -0.10009,2.95081 1.37058,2.37878c2.23414,-1.84474 3.4213,-4.67525 5.36692,-6.81311c3.11844,-3.99936 8.08091,-6.0316 12.87434,-7.3592c3.49459,-0.71093 7.14273,-0.94484 10.6852,-0.56221c4.10036,1.44148 6.54364,5.31997 9.41698,8.3332c3.05804,3.35019 3.0781,8.13682 3.95916,12.3409c1.5,9.48133 -0.68921,19.01877 -1.22459,28.54065c-0.0507,3.02221 -0.76131,6.16511 0.0388,9.12748c0.80853,1.48238 2.43779,0.13655 2.89482,-0.90904c5.02514,-8.34583 8.88655,-17.32763 13.13001,-26.08193c6.45617,-13.72689 12.22307,-28.39852 12.15421,-43.79761c-0.16762,-7.7831 -1.80267,-16.25127 -7.57252,-21.91314c-4.51826,-4.29158 -10.25999,-7.13048 -16.11163,-9.12935c-2.0318,-0.61701 -4.14858,-0.99219 -6.27696,-0.96083l0.00004,0z"/>
     <path fill="#666666" fill-rule="evenodd" stroke-width="0.623622" stroke-miterlimit="4" id="svg_9" d="m9.542427,-127.83443c-0.56177,0.00001 -0.98024,0.50221 -1.04896,1.03097c-0.15378,0.49067 -0.22988,1.12812 0.22705,1.48587c0.45559,0.43493 1.23575,0.27895 1.57142,-0.2295c0.32383,-0.43262 0.75816,-0.9435 0.5448,-1.52108c-0.17734,-0.53838 -0.77021,-0.76403 -1.29431,-0.76626z"/>
     <g id="svg_12">
      <path d="m8.291327,-121.9668c3.7,-13.6 4.7,-28.4 11.1,-41.2c3.1,-6.2 7.1,-10.9 12.9,-14.7c4.8,-3.2 11.2,-7.2 17.1,-7.4c5.2,-0.2 11.1,2.5 15.6,5c6.8,3.7 10.8,8.3 12.7,16c3.6,14.3 -0.9,30.6 -6.4,43.8c-3,7.3 -6.5,14.3 -9.9,21.4c-1.6,3.3 -3.1,6.7 -4.9,9.9c-0.6,1 -3.4,6.6 -4.7,6.5c-1,-0.1 -1,1.4 0,1.5c2.6,0.2 6.4,-7.8 7.2,-9.3c3.8,-7.2 7.2,-14.7 10.6,-22.1c6.7,-14.6 12.6,-31.4 10.4,-47.7c-0.9,-6.5 -3.2,-13.2 -8.4,-17.4c-4.7,-3.8 -10.6,-6.5 -16.4,-8.1c-10.8,-2.9 -23.9,4.8 -31,12.6c-12.3,13.5 -12.8,34.1 -17.3,50.8c-0.3,0.9 1.2,1.3 1.4,0.4z" id="svg_10"/>
      <path d="m51.091327,-82.3668c0,0.1 0.8,0 1,-0.2c0.3,-0.4 0,-3 0,-3.5c0.2,-6 0.8,-12.1 1.5,-18.1c0.7,-6.2 1.2,-12 -0.1,-18.1c-0.6,-2.8 -0.8,-6 -2,-8.7c-1,-2.3 -2.9,-3.8 -4.5,-5.7c-3.4,-3.9 -5.9,-6.5 -11.3,-6.1c-4.2,0.3 -7.6,0.5 -11.6,2.3c-2.8,1.3 -5.9,2.6 -7.9,5c-3.4,4 -6,8.7 -9.2,12.9c-0.6,0.8 0.7,1.5 1.3,0.8c3.2,-4.2 5.9,-9.4 9.5,-13.2c2.8,-2.9 8.2,-5.1 11.9,-5.8c5.2,-1.1 11.1,-0.8 14.8,3.3c2.2,2.4 5,5 6.1,8.1c1.1,3 1.5,6.5 2,9.7c1,5.7 0,11.5 -0.7,17.2c-0.7,5.9 -1.3,12 -1.3,17.9c0,0.3 0.6,5.6 1.9,3c0.3,-0.9 -1,-1.7 -1.4,-0.8z" id="svg_11"/>
     </g>
    </g>
    <circle fill="#666666" stroke="#666666" stroke-linecap="round" stroke-miterlimit="10" class="st8" cx="-28.408673" cy="-22.9668" r="9.6" id="svg_14"/>
    <g id="svg_18">
     <path fill="#ffff00" class="st10" d="m-68.408673,-113.7668c-7.7,-1.5 -15.5,3.7 -19.4,10.5c-3.9,6.8 -4.7,14.9 -5.1,22.7c-0.3,6.2 -0.3,12.6 2.2,18.3c2.9,6.6 9.3,11.6 16.4,12.8c16.8,2.8 32.1,-13.9 49,-11.7c8.6,1.1 15.6,6.9 23.4,10.7c6.6,3.3 14,5.2 21.3,4.4c7.3,-0.8 14.4,-4.5 18.4,-10.7c5.4,-8.4 4.2,-19.2 2.8,-29c-1.2,-8.5 -2.9,-17.8 -9.6,-23.1c-5.7,-4.4 -13.6,-4.7 -20.9,-4.7c-26.3,-0.1 -52.5,-0.2 -78.8,-0.3" id="svg_15"/>
     <g id="svg_17">
      <path d="m-68.008673,-115.1668c-10.9,-1.5 -19.7,6.3 -23.3,16.1c-2.2,5.9 -2.7,12.3 -3,18.6c-0.3,6.3 -0.3,13 2.3,18.9c4.2,9.6 14.4,15 24.7,13.9c11.7,-1.2 21.4,-8.8 32.7,-11.3c14.4,-3.1 24.3,7.5 36.9,12.2c10.8,4 23.7,3.7 32.7,-4.3c8.9,-8 8.8,-20.4 7.5,-31.3c-1.2,-10.1 -2.7,-22.4 -12.1,-28.4c-5.1,-3.2 -11.3,-3.8 -17.2,-4c-8.9,-0.2 -17.9,-0.1 -26.8,-0.1c-18.4,-0.1 -36.8,-0.1 -55.1,-0.2c-1.9,0 -1.9,3 0,3c25.9,0.1 51.8,0.1 77.8,0.3c5.4,0 11,-0.1 16.1,1.8c6.2,2.2 9.8,7.4 11.7,13.5c3,9.7 5,22.6 2.5,32.6c-3.3,12.6 -16,18.2 -28.2,16.4c-11.3,-1.7 -19.5,-9.4 -29.8,-13.2c-8.9,-3.3 -17.6,-1.4 -26.1,2.1c-8.8,3.6 -17.9,9.1 -27.8,8c-6.5,-0.7 -12.5,-4.6 -15.8,-10.3c-3.5,-6.1 -3.3,-13.5 -2.9,-20.3c0.7,-12.7 5.4,-33.3 22.5,-31c1.8,0.1 2.6,-2.8 0.7,-3z" id="svg_16"/>
     </g>
    </g>
    <g id="svg_22">
     <path fill="#ffffff" class="st5" d="m-30.308673,-73.5668c0,0 14.6,1.6 20.9,5.8c6.3,4.2 12.2,9.1 19.4,11.5c7.2,2.4 16.1,1.5 20.7,-4.5c4.9,-6.4 3.1,-15.5 1,-23.3c-1.7,-6.3 -3.8,-13.2 -9.3,-16.8c-4.3,-2.8 -9.8,-2.9 -14.9,-3c-19.7,-0.2 -39.5,-0.3 -59.2,-0.5l-0.7,0c-4.9,-0.3 -9.8,-0.7 -14.6,0.1c-4.8,0.8 -9.6,2.7 -13,6.2c-4.6,4.9 -5.8,12 -6.1,18.7c-0.1,3.4 -0.1,6.8 1.2,10c1,2.7 2.9,5.1 5.3,6.7c4.9,3.4 11.5,3.3 17.2,1.5c5.7,-1.8 10.7,-5.1 15.8,-8.2c5.1,-2.9 10.3,-3.6 16.3,-4.2" id="svg_19"/>
     <g id="svg_21">
      <path d="m-30.308673,-72.0668c7.4,0.8 15.3,2.3 21.5,6.5c8.5,5.8 17.2,12.8 28.1,12c8.6,-0.7 15.1,-6.5 15.9,-15.3c0.5,-5 -0.7,-10.1 -1.9,-14.9c-1.3,-4.9 -2.7,-10 -5.7,-14.1c-6.5,-8.9 -18.3,-7.5 -28,-7.6c-14.5,-0.1 -29,-0.2 -43.4,-0.3c-10.5,-0.1 -22.7,-2.4 -32.3,2.9c-8.9,4.9 -11.3,14.9 -11.5,24.4c-0.2,11.1 5.9,20.1 17.8,20.1c5.8,0 11.2,-2.3 16.3,-5c3.1,-1.7 6,-3.8 9.2,-5.4c4.4,-2.2 9.2,-2.8 14,-3.3c1.9,-0.2 1.9,-3.2 0,-3c-4.3,0.4 -8.7,0.9 -12.8,2.5c-4.5,1.7 -8.5,4.7 -12.7,7c-9.8,5.2 -25.7,7.1 -28.4,-7.2c-2,-10.5 1.1,-24.3 11.9,-28.6c8.7,-3.4 19.3,-1.5 28.5,-1.5c11.2,0.1 22.4,0.2 33.6,0.3c5.6,0 11.2,0.1 16.8,0.1c5.5,0 11.5,-0.1 16.1,3.5c6.7,5.4 9.6,18.7 9.7,27c0.2,11.9 -9.9,17.4 -20.7,14.6c-9.4,-2.5 -15.7,-10.4 -24.6,-13.9c-5.5,-2.2 -11.5,-3.2 -17.4,-3.9c-1.9,-0.1 -1.9,2.9 0,3.1z" id="svg_20"/>
     </g>
    </g>
    <circle stroke="#000000" stroke-width="2" stroke-linecap="round" stroke-miterlimit="10" class="st12" cx="89.091327" cy="-164.866798" r="5.4" id="svg_23"/>
    <circle stroke="#000000" stroke-width="2" stroke-linecap="round" stroke-miterlimit="10" class="st12" cx="98.091327" cy="-181.866798" r="5.4" id="svg_24"/>
    <circle stroke="#000000" stroke-width="2" stroke-linecap="round" stroke-miterlimit="10" class="st12" cx="84.391327" cy="-200.6668" r="7.6" id="svg_25"/>
    <g id="svg_28">
     <g id="svg_27">
      <path fill="#666666" class="st7" d="m-66.208673,-21.8668c3.8,9.3 11.5,16.1 21.3,18.5c1.9,0.5 2.7,-2.4 0.8,-2.9c-8.7,-2.1 -15.8,-8.1 -19.2,-16.4c-0.7,-1.8 -3.6,-1 -2.9,0.8z" id="svg_26"/>
     </g>
    </g>
    <g id="svg_31">
     <g id="svg_30">
      <path fill="#666666" class="st7" d="m-81.708673,-16.6668c5.4,15.6 17.7,27.1 33.7,31.2c1.9,0.5 2.7,-2.4 0.8,-2.9c-14.9,-3.9 -26.6,-14.5 -31.6,-29.1c-0.6,-1.8 -3.5,-1 -2.9,0.8z" id="svg_29"/>
     </g>
    </g>
    <g id="svg_34">
     <g id="svg_33">
      <path fill="#666666" class="st7" d="m-98.272693,-12.90411c2.34879,5.84924 10.26402,20.73731 19.66402,29.13731c9,8 19.6,11.5 31.2,13.8c1.9,0.4 2.7,-2.5 0.8,-2.9c-11.7,-2.2 -22.2,-5.7 -31,-14.1c-8.6,-8.1 -15.17007,-21.45649 -17.62394,-27.04767c-1,-1.6 -3.28247,-0.80531 -3.04008,1.11036z" id="svg_32"/>
     </g>
    </g>
    <g id="svg_37">
     <g id="svg_36">
      <path fill="#666666" class="st7" d="m-39.908673,-27.4668c-8.9,-10 -21.9,-13.5 -34.7,-15.3c-14.7,-2.1 -29.5,-2.4 -44.3,-0.9c-1.9,0.2 -1.9,3.2 0,3c13.3,-1.3 26.8,-1.3 40.1,0.3c13.3,1.6 27.4,4.5 36.7,15c1.4,1.5 3.5,-0.6 2.2,-2.1z" id="svg_35"/>
     </g>
    </g>
    <g id="svg_40">
     <g id="svg_39">
      <path fill="#666666" class="st7" d="m-40.108673,-22.4668c-10.9,-7.6 -24.9,-9.8 -37.8,-11.6c-14.4,-2.1 -29,-2.8 -43.5,-2.1c-1.9,0.1 -1.9,3.1 0,3c14.3,-0.6 28.6,0 42.7,2c12.6,1.8 26.4,3.9 37.1,11.3c1.6,1.1 3.1,-1.5 1.5,-2.6z" id="svg_38"/>
     </g>
    </g>
    <g id="svg_43">
     <g id="svg_42">
      <path fill="#666666" class="st7" d="m7.091327,-18.6668c-3.4,8.3 -10.5,14.3 -19.2,16.4c-1.9,0.5 -1.1,3.3 0.8,2.9c9.8,-2.4 17.5,-9.2 21.3,-18.5c0.7,-1.8 -2.2,-2.6 -2.9,-0.8z" id="svg_41"/>
     </g>
    </g>
    <g id="svg_46">
     <g id="svg_45">
      <path fill="#666666" class="st7" d="m22.591327,-17.4668c-5,14.6 -16.6,25.3 -31.6,29.1c-1.9,0.5 -1.1,3.4 0.8,2.9c16,-4.1 28.3,-15.6 33.7,-31.2c0.6,-1.8 -2.3,-2.6 -2.9,-0.8z" id="svg_44"/>
     </g>
    </g>
    <g id="svg_49">
     <g id="svg_48">
      <path fill="#666666" class="st7" d="m41.917597,-16.17188c-5.8,10.2 -11.8,20.6 -20.4,28.7c-8.8,8.3 -19.4,11.8 -31,14.1c-1.9,0.4 -1.1,3.3 0.8,2.9c11.6,-2.2 22.2,-5.7 31.2,-13.8c9.4,-8.4 15.8,-19.6 22,-30.4c1,-1.6 -1.6,-3.2 -2.6,-1.5z" id="svg_47"/>
     </g>
    </g>
    <g id="svg_52">
     <g id="svg_51">
      <path fill="#666666" class="st7" d="m-14.208673,-25.3668c9.3,-10.5 23.4,-13.4 36.7,-15c13.3,-1.6 26.7,-1.7 40.1,-0.3c1.9,0.2 1.9,-2.8 0,-3c-14.8,-1.5 -29.6,-1.2 -44.3,0.9c-12.8,1.9 -25.8,5.3 -34.7,15.3c-1.2,1.5 0.9,3.6 2.2,2.1z" id="svg_50"/>
     </g>
    </g>
    <g id="svg_55">
     <g id="svg_54">
      <path fill="#666666" class="st7" d="m-14.608673,-19.8668c10.7,-7.5 24.5,-9.5 37.1,-11.3c14.2,-2 28.4,-2.6 42.7,-2c1.9,0.1 1.9,-2.9 0,-3c-14.6,-0.6 -29.1,0 -43.5,2.1c-12.9,1.9 -26.9,4 -37.8,11.6c-1.6,1.1 -0.1,3.7 1.5,2.6z" id="svg_53"/>
     </g>
    </g>
    <g id="svg_57">
     <path fill="#000000" stroke="#000000" stroke-width="2" stroke-linecap="round" stroke-miterlimit="10" fill-opacity="0" class="st4" d="m7.991327,37.8332c-4.6,0 -9.1,-0.7 -13.3,-2.3c-8.2,-3.1 -14.9,-8.8 -15.1,-9.1c-8.1,-7.1 -11.8,-15.1 -13.4,-20.6l10.9,-3.2c1.2,4.1 3.9,10 10,15.3c0,0 5.4,4.7 11.7,7c14.6,5.5 39.7,-4.8 55.6,-17.9c5.2,-4.3 16.35714,-17.47857 23.75714,-71.97857l0.6,-4.2c4.20093,-39.6924 3.12425,-56.16448 4.89286,-84.94286l12.19285,0.12857c-2.37981,40.01056 -2.64385,64.14288 -5.78571,86.41429l-0.6,4.2c-8.1,58.8 -19.97143,70.96428 -27.75714,79.17857c-12.3,10 -34.3,22 -53.7,22z" id="svg_56"/>
    </g>
    <path fill="#ffff00" stroke="#000000" stroke-linecap="round" stroke-miterlimit="10" class="st13" d="m-38.508673,1.1332c7.3,0 14.6,0 21.9,0c0.6,9.3 -6.6,15.7 -12.3,15.1c-5.1,-0.5 -10.5,-6.9 -9.6,-15.1z" id="svg_58"/>
    <path fill="#ffff00" fill-rule="evenodd" stroke="#ffff00" stroke-width="0.623622" stroke-miterlimit="4" id="svg_59" d="m4.557137,36.545c-10.75089,-1.04998 -22.40775,-7.6674 -29.7408,-16.88337l-2.11293,-2.65547l1.37329,-0.40951c1.99167,-0.59389 3.55078,-1.47279 5.1075,-2.87919l1.37011,-1.23781l1.85241,2.32795c3.18555,4.00334 9.56509,8.58119 15.04047,10.7928c3.88125,1.5677 6.77498,1.98513 12.28852,1.77266c6.72643,-0.25921 12.33191,-1.53657 19.91631,-4.53848c9.91367,-3.92385 21.63014,-11.03417 27.04112,-16.41033c9.51313,-9.45192 16.75588,-31.47904 21.95875,-66.78238c2.51681,-17.07744 3.97324,-36.42542 5.01413,-66.61048c0.29126,-8.44643 0.63563,-17.72768 0.76526,-20.625l0.23569,-5.26786l4.94508,0c2.7198,0 4.94509,0.14329 4.94509,0.31842c0,0.17513 -0.39984,7.92959 -0.88852,17.23214c-0.48869,9.30255 -1.13696,21.73516 -1.4406,27.62801c-1.11931,21.72279 -2.29501,33.77465 -5.01705,51.42858c-4.57003,29.63914 -10.52729,49.42289 -18.55106,61.60714c-3.01526,4.57873 -7.03359,9.09782 -10.22086,11.49457c-17.38418,13.07247 -39.38096,21.11384 -53.88191,19.69761z"/>
   </g>
  </g>
 </g>
</svg>